<svg fill="none" height="48" viewBox="0 0 48 48" width="48" xmlns="http://www.w3.org/2000/svg">
  <rect fill="white" height="48" width="48" />
  <g clip-path="url(#clip0_49_2950)">
    <mask fill="white" id="path-1-inside-1_49_2950">
      <path d="M5.5 11H42.5V37H5.5V11Z" />
    </mask>
    <path
      d="M11.7529 26.4824H9.35055V32H7.0068V17.7812H11.5185C12.2542 17.7878 12.9313 17.8822 13.5498 18.0645C14.1683 18.2467 14.7021 18.5137 15.1513 18.8652C15.594 19.2233 15.9391 19.6693 16.1865 20.2031C16.4339 20.7305 16.5576 21.349 16.5576 22.0586C16.5576 22.5469 16.4925 22.9896 16.3623 23.3867C16.2386 23.7839 16.0628 24.1419 15.8349 24.4609C15.6071 24.7799 15.3336 25.0599 15.0146 25.3008C14.6956 25.5417 14.3408 25.75 13.9502 25.9258L16.9873 31.873V32H14.4775L11.7529 26.4824ZM9.35055 24.5684H11.5478C11.9645 24.5618 12.3388 24.5 12.6709 24.3828C13.0094 24.2591 13.2959 24.0833 13.5302 23.8555C13.7386 23.6602 13.9013 23.4193 14.0185 23.1328C14.1357 22.8464 14.1943 22.5208 14.1943 22.1562C14.1943 21.7461 14.1292 21.388 13.999 21.082C13.8753 20.7695 13.6897 20.5091 13.4423 20.3008C13.2145 20.1055 12.9378 19.959 12.6123 19.8613C12.2867 19.7572 11.9222 19.7018 11.5185 19.6953H9.35055V24.5684ZM22.8574 25.0371C22.8574 24.6725 22.9779 24.3633 23.2188 24.1094C23.4596 23.8555 23.7949 23.7285 24.2246 23.7285C24.6478 23.7285 24.9798 23.8522 25.2207 24.0996C25.4681 24.347 25.5918 24.6595 25.5918 25.0371C25.5918 25.4147 25.4681 25.7272 25.2207 25.9746C24.9798 26.2155 24.6478 26.3359 24.2246 26.3359C23.7949 26.3359 23.4596 26.2122 23.2188 25.9648C22.9779 25.7174 22.8574 25.4082 22.8574 25.0371ZM36.6963 26.4824H34.294V32H31.9502V17.7812H36.462C37.1976 17.7878 37.8747 17.8822 38.4932 18.0645C39.1117 18.2467 39.6455 18.5137 40.0948 18.8652C40.5375 19.2233 40.8825 19.6693 41.1299 20.2031C41.3773 20.7305 41.501 21.349 41.501 22.0586C41.501 22.5469 41.4359 22.9896 41.3057 23.3867C41.182 23.7839 41.0062 24.1419 40.7784 24.4609C40.5505 24.7799 40.2771 25.0599 39.958 25.3008C39.639 25.5417 39.2842 25.75 38.8936 25.9258L41.9307 31.873V32H39.4209L36.6963 26.4824ZM34.294 24.5684H36.4913C36.9079 24.5618 37.2823 24.5 37.6143 24.3828C37.9528 24.2591 38.2393 24.0833 38.4737 23.8555C38.682 23.6602 38.8448 23.4193 38.962 23.1328C39.0791 22.8464 39.1377 22.5208 39.1377 22.1562C39.1377 21.7461 39.0726 21.388 38.9424 21.082C38.8187 20.7695 38.6332 20.5091 38.3858 20.3008C38.1579 20.1055 37.8812 19.959 37.5557 19.8613C37.2302 19.7572 36.8656 19.7018 36.462 19.6953H34.294V24.5684Z"
      fill="black" />
  </g>
  <path d="M5.5 11V12H42.5V11V10H5.5V11ZM42.5 37V36H5.5V37V38H42.5V37Z" fill="black"
        mask="url(#path-1-inside-1_49_2950)" />
  <defs>
    <clipPath id="clip0_49_2950">
      <path d="M5.5 11H42.5V37H5.5V11Z" fill="white" />
    </clipPath>
  </defs>
</svg>
